HIERARCHY
ROOT Hips
{
	OFFSET 0.0000 0.0000 0.0000
	CHANNELS 6 Xposition Yposition Zposition Zrotation Xrotation Yrotation
	JOINT Ab
	{
		OFFSET -0.0000 8.1305 -0.0000
		CHANNELS 3 Zrotation Xrotation Yrotation
		JOINT Chest
		{
			OFFSET -0.0000 26.2902 -0.0000
			CHANNELS 3 Zrotation Xrotation Yrotation
			JOINT Neck
			{
				OFFSET -0.0000 26.2902 0.0000
				CHANNELS 3 Zrotation Xrotation Yrotation
				JOINT Head
				{
					OFFSET -0.0000 10.8167 0.0000
					CHANNELS 3 Zrotation Xrotation Yrotation
					End Site
					{
						OFFSET -0.0000 16.7167 0.0000
					}
				}
			}
			JOINT LeftCollar
			{
				OFFSET -0.0000 26.2902 0.0000
				CHANNELS 3 Zrotation Xrotation Yrotation
				JOINT LeftShoulder
				{
					OFFSET 19.6667 -0.0000 0.0000
					CHANNELS 3 Zrotation Xrotation Yrotation
					JOINT LeftElbow
					{
						OFFSET 27.2190 0.0000 0.0000
						CHANNELS 3 Zrotation Xrotation Yrotation
						JOINT LeftWrist
						{
							OFFSET 30.7431 0.0000 0.0000
							CHANNELS 3 Zrotation Xrotation Yrotation
							End Site
							{
								OFFSET 0.0000 -14.7500 0.0000
							}
						}
					}
				}
			}
			JOINT RightCollar
			{
				OFFSET -0.0000 26.2902 0.0000
				CHANNELS 3 Zrotation Xrotation Yrotation
				JOINT RightShoulder
				{
					OFFSET -19.6667 0.0000 0.0000
					CHANNELS 3 Zrotation Xrotation Yrotation
					JOINT RightElbow
					{
						OFFSET -27.2190 0.0000 0.0000
						CHANNELS 3 Zrotation Xrotation Yrotation
						JOINT RightWrist
						{
							OFFSET -30.7431 0.0000 0.0000
							CHANNELS 3 Zrotation Xrotation Yrotation
							End Site
							{
								OFFSET -0.0000 -14.7500 0.0000
							}
						}
					}
				}
			}
		}
	}
	JOINT LeftHip
	{
		OFFSET 11.8000 0.0000 0.0000
		CHANNELS 3 Zrotation Xrotation Yrotation
		JOINT LeftKnee
		{
			OFFSET -0.0000 -39.7832 0.0000
			CHANNELS 3 Zrotation Xrotation Yrotation
			JOINT LeftAnkle
			{
				OFFSET -0.0000 -41.7317 0.0000
				CHANNELS 3 Zrotation Xrotation Yrotation
				End Site
				{
					OFFSET -0.0000 -4.9167 16.7167
				}
			}
		}
	}
	JOINT RightHip
	{
		OFFSET -11.8000 0.0000 0.0000
		CHANNELS 3 Zrotation Xrotation Yrotation
		JOINT RightKnee
		{
			OFFSET -0.0000 -39.7832 0.0000
			CHANNELS 3 Zrotation Xrotation Yrotation
			JOINT RightAnkle
			{
				OFFSET -0.0000 -41.7317 0.0000
				CHANNELS 3 Zrotation Xrotation Yrotation
				End Site
				{
					OFFSET -0.0000 -4.9167 16.7167
				}
			}
		}
	}
}
MOTION
Frames: 10
Frame Time: 0.010000
-4.8640 91.3748 70.3060 357.4172 355.4021 185.3297 0.9614 349.2688 1.5300 5.0094 10.6926 0.9679 352.0594 351.0106 356.3898 3.8851 6.0889 356.8054 339.7607 357.4206 14.4182 317.4457 58.3064 343.4352 12.7648 355.3755 319.3947 88.2557 356.1214 351.9603 27.1914 356.0270 343.6382 40.0210 48.0067 8.4750 339.1474 353.4976 34.3842 272.0280 355.7996 7.4076 0.4214 346.2575 7.2603 356.8651 29.3756 2.1819 351.3284 347.9293 18.0249 0.1161 3.9348 6.0051 7.6853 2.9455 6.7649 352.1076 342.1059 322.1481 
-4.8298 91.3622 70.0730 357.3769 355.3263 185.1360 0.9041 349.1883 1.5725 5.0282 10.7375 1.0156 352.0323 351.0341 356.4143 3.8765 6.1666 356.8293 339.7527 357.3979 14.4046 317.1688 58.2481 343.8499 12.4160 355.5289 319.6589 87.8226 356.2206 351.3443 27.2010 356.0009 343.6155 40.0286 47.9254 8.3658 339.1222 353.5108 34.2534 272.0084 355.7595 7.4548 0.2234 345.7016 7.2477 356.8918 28.6290 1.5972 351.4868 347.9291 17.6994 0.0770 4.0067 6.2777 7.7274 2.9000 6.6361 351.9143 342.2554 322.1644 
-4.7835 91.3390 69.8356 357.4001 355.3158 185.0206 0.8637 349.1834 1.5762 5.0847 10.7498 1.0143 352.0521 351.1218 356.4093 3.8538 6.1763 356.8163 339.7606 357.4264 14.3486 316.9478 58.2313 344.1888 11.9355 355.7618 319.9866 87.9921 356.1998 350.9895 27.2232 356.0026 343.5684 40.0856 47.7066 8.2038 339.2094 353.5524 34.1624 271.9795 355.7608 7.4480 0.1098 345.1706 7.1534 356.8399 27.9225 1.2757 352.1963 348.2125 17.0611 0.1440 4.1243 6.2315 7.7111 2.9577 6.8424 351.8256 342.2844 322.1221 
-4.7392 91.3114 69.5865 357.4418 355.3385 184.8945 0.8656 349.1948 1.5728 5.0973 10.7863 1.0072 352.0777 351.1882 356.4158 3.8577 6.1681 356.8176 339.8035 357.4195 14.3338 316.6865 58.2228 344.5042 11.5708 355.9157 320.3746 87.8819 356.3164 350.4596 27.2452 355.9811 343.5554 40.1639 47.5524 8.0333 339.2211 353.5748 34.0331 271.9101 355.6146 7.6593 0.0308 344.6896 6.9960 356.7187 27.2086 0.7584 352.3021 348.1937 17.1845 0.2412 4.3080 6.3584 7.6927 2.9318 6.9111 351.6214 342.4797 322.0357 
-4.7077 91.2969 69.3336 357.4296 355.3347 184.7069 0.8279 349.1659 1.5980 5.1063 10.8308 1.0347 352.0306 351.3033 356.4460 3.9361 6.1211 356.8400 339.8601 357.4114 14.4484 316.6389 58.3101 344.5043 11.1732 356.1086 320.8043 87.7151 356.5485 350.0788 27.2592 356.0145 343.7347 40.6857 47.2378 7.3143 339.0962 353.5261 34.0790 272.0572 355.6977 7.7947 359.8725 344.3048 6.9839 356.7132 26.2325 0.3772 352.1064 348.6793 17.0003 0.2561 4.4533 6.5876 7.7145 2.8779 6.7485 351.4057 342.7250 322.1867 
-4.6742 91.2748 69.0684 357.4508 355.3922 184.5522 0.7865 349.1932 1.6134 5.1521 10.8790 1.0476 352.1041 351.3447 356.4535 3.8601 6.1730 356.8405 339.8650 357.4206 14.4016 316.3803 58.2412 344.9027 10.6898 356.3462 321.1485 87.8570 356.5126 349.7573 27.2781 356.0269 343.6765 40.6712 47.0883 7.2601 339.0761 353.5618 33.9463 272.1492 355.7543 7.6794 359.7496 343.9747 6.8828 356.6420 25.3048 359.9990 351.9324 348.8679 16.9920 0.3144 4.6675 6.7131 7.7552 2.7886 6.1313 351.2313 343.1243 322.8748 
-4.6459 91.2502 68.8170 357.4703 355.4004 184.3942 0.7781 349.1890 1.6174 5.1304 10.9125 1.0530 352.1183 351.4263 356.4578 3.9104 6.1411 356.8366 339.9103 357.4110 14.3912 316.0885 58.2156 345.2656 10.3280 356.4912 321.5114 87.6340 356.5750 349.2973 27.3354 355.9942 343.6498 40.6442 47.0016 7.1796 339.0727 353.5944 33.7763 272.1020 355.6922 7.7124 359.6170 343.6249 6.5099 356.4818 24.4917 0.0208 351.8576 348.8937 16.7308 0.3523 4.7811 6.7931 7.7326 2.9192 6.5630 350.8278 343.3203 322.5435 
-4.6143 91.2224 68.5605 357.5143 355.4255 184.2392 0.7475 349.1929 1.6248 5.1890 10.9584 1.0549 352.1694 351.4291 356.4742 3.8341 6.1990 356.8534 339.9309 357.4389 14.3199 315.5982 58.1708 345.8802 10.0025 356.6225 321.8070 87.4221 356.6543 348.8659 27.3362 355.9738 343.6331 40.6986 46.8256 7.0459 339.1226 353.6172 33.6602 272.1279 355.7648 7.8144 359.4982 343.2627 6.5104 356.4995 23.5680 359.6176 351.9143 349.1928 16.8354 0.4370 4.9031 6.8530 7.6869 3.0592 6.9189 350.9375 342.9120 322.2796 
-4.5872 91.1907 68.2983 357.5584 355.4714 184.0863 0.7434 349.2279 1.6185 5.1910 10.9840 1.0489 352.1623 351.5064 356.4748 3.8844 6.1542 356.8474 339.9303 357.4648 14.3048 315.3741 58.1014 346.2282 9.6108 356.7887 322.1621 87.3324 356.5382 348.2085 27.3892 355.9829 343.5916 40.6661 46.6916 6.9834 339.2123 353.6706 33.5334 272.1044 355.8701 7.8170 359.3846 342.9618 6.1738 356.3845 22.6732 359.6556 352.1075 349.3901 16.7093 0.5228 5.0692 6.8244 7.5978 3.2653 8.2999 350.4467 343.1420 321.1413 
-4.5669 91.1616 68.0448 357.5847 355.4836 183.9036 0.6949 349.2475 1.6442 5.2554 10.9928 1.0744 351.8206 351.6711 356.3726 4.3192 5.9396 356.7406 339.8882 357.4496 14.2490 315.0134 57.9504 346.7543 9.2344 356.9429 322.4436 87.3523 356.5860 347.8028 27.3962 355.9550 343.5502 40.7471 46.2309 6.8143 339.3300 353.7139 33.5511 272.2748 355.8696 8.1560 359.2363 342.6433 6.0428 356.4441 21.8629 359.2804 352.2394 349.5097 16.6110 0.5818 5.1895 6.9036 7.6053 3.3067 7.9739 350.3720 343.1785 321.5075 
